<svg xmlns="http://www.w3.org/2000/svg" width="360" height="440" fill="none" class="fill-current side-bar__logo" viewBox="0 0 360 440">
  <mask id="a" fill="#fff">
    <path width="44.786" height="40.857" rx=".196" d="M1.568 0H356.72A1.568 1.568 0 0 1 358.288 1.568V325.288A1.568 1.568 0 0 1 356.72 326.856H1.568A1.568 1.568 0 0 1 0 325.288V1.568A1.568 1.568 0 0 1 1.568 0z"/>
  </mask>
  <path width="44.786" height="40.857" stroke="#fff" stroke-width="12.568" mask="url(#a)" rx=".196" d="M1.568 0H356.72A1.568 1.568 0 0 1 358.288 1.568V325.288A1.568 1.568 0 0 1 356.72 326.856H1.568A1.568 1.568 0 0 1 0 325.288V1.568A1.568 1.568 0 0 1 1.568 0z"/>
  <path fill="#fff" d="M32.536 109.16h64.016q20.64 0 35.176 6.216 14.552 6.216 22.256 18.4 7.824 12.048 7.832 29.832 0 13.544 -4.976 23.864a48.48 48.48 0 0 1 -14.048 17.4q-9.072 6.96 -21.624 10.816l-9.448 4.6H54.16l-0.248 -24.736h43.128q11.2 0 18.648 -3.976 7.464 -3.976 11.184 -10.816 3.864 -6.96 3.856 -15.664 0 -9.44 -3.728 -16.408 -3.6 -7.08 -11.192 -10.816 -7.576 -3.84 -19.264 -3.848H63.736v156.12h-31.2zM135.84 290.144l-42.512 -81.296 32.696 -0.12 43.128 79.8v1.616zm147.72 -26.976V199.04q0 -7.2 -2.616 -12.432a18.4 18.4 0 0 0 -7.952 -8.08q-5.216 -2.856 -13.176 -2.856 -7.336 0 -12.68 2.48 -5.336 2.488 -8.328 6.72a16.16 16.16 0 0 0 -2.984 9.568h-29.832q0 -7.952 3.856 -15.416 3.84 -7.448 11.184 -13.296 7.328 -5.84 17.52 -9.2t22.88 -3.36q15.16 0 26.848 5.096 11.808 5.096 18.52 15.416 6.84 10.2 6.84 25.6v59.8q0 9.2 1.24 16.528 1.368 7.2 3.856 12.56v1.984h-30.704q-2.112 -4.848 -3.36 -12.304a100.8 100.8 0 0 1 -1.12 -14.672Zm4.344 -54.816 0.256 18.52h-21.52q-8.336 0 -14.672 1.616 -6.336 1.496 -10.56 4.48a19.2 19.2 0 0 0 -6.344 7.2 21.12 21.12 0 0 0 -2.112 9.576q0 5.352 2.48 9.824 2.488 4.344 7.216 6.832 4.84 2.496 11.68 2.488 9.2 0 16.04 -3.728 6.96 -3.856 10.936 -9.32 3.976 -5.6 4.224 -10.568l9.696 13.304q-1.496 5.088 -5.096 10.936c-3.6 5.848 -5.552 7.624 -9.44 11.184a47.2 47.2 0 0 1 -13.808 8.576q-7.944 3.36 -18.4 3.36 -13.168 0 -23.488 -5.224 -10.32 -5.336 -16.16 -14.296 -5.84 -9.072 -5.84 -20.504 0 -10.688 3.976 -18.896a36.8 36.8 0 0 1 11.936 -13.92q7.952 -5.6 19.392 -8.456 11.432 -2.984 26.104 -2.984h23.488ZM12.584 380.112v36.032H7.832v-43.168h4.632zm15.28 -7.456 -0.12 4.384a40 40 0 0 0 -1.552 -0.2 16 16 0 0 0 -1.64 -0.08q-3.12 0 -5.464 1.16a11.2 11.2 0 0 0 -3.912 3.152 14.4 14.4 0 0 0 -2.432 4.712q-0.84 2.672 -0.96 5.744l-1.76 0.68q0 -4.232 0.88 -7.864a20 20 0 0 1 2.68 -6.344q1.832 -2.752 4.584 -4.272a13.2 13.2 0 0 1 8.336 -1.392q0.92 0.12 1.36 0.32m53.408 35.744v-22.256q0 -3.08 -1.28 -5.312a8.4 8.4 0 0 0 -3.752 -3.432q-2.472 -1.2 -6.104 -1.2 -3.36 0 -5.984 1.2a10.4 10.4 0 0 0 -4.112 3.152 7.04 7.04 0 0 0 -1.472 4.352l-4.792 -0.04q0 -2.44 1.2 -4.712 1.192 -2.28 3.392 -4.064 2.192 -1.8 5.224 -2.832 3.072 -1.08 6.744 -1.08 4.632 0 8.136 1.552 3.552 1.56 5.552 4.672 2 3.12 2 7.824v20.864q0 2.24 0.312 4.624 0.36 2.4 1 3.952v0.48h-5.072a19.2 19.2 0 0 1 -0.76 -3.592 40 40 0 0 1 -0.24 -4.152Zm1.12 -17.392 0.08 3.672H73.08q-3.672 0 -6.584 0.68a15.2 15.2 0 0 0 -4.864 1.912 9.2 9.2 0 0 0 -3.072 2.992 7.68 7.68 0 0 0 -1.04 3.992 8 8 0 0 0 1.16 4.232q1.2 1.92 3.352 3.064a11.2 11.2 0 0 0 5.184 1.12q3.992 0 7.024 -1.472a15.2 15.2 0 0 0 5.064 -3.872q2 -2.4 2.672 -5.224l2.08 2.752a13.6 13.6 0 0 1 -1.92 4.104 17.6 17.6 0 0 1 -3.552 3.92 19.2 19.2 0 0 1 -5.184 2.944q-2.952 1.12 -6.704 1.12 -4.232 0 -7.376 -1.6a12.32 12.32 0 0 1 -4.872 -4.344 12 12 0 0 1 -1.712 -6.304q0 -3.192 1.36 -5.712a12 12 0 0 1 3.904 -4.304q2.592 -1.8 6.224 -2.72 3.672 -0.96 8.216 -0.952h9.936Zm65.728 16.76v-52.912h4.784v61.288h-4.464zm-29.968 -12.768v-0.84q0 -5.024 1.16 -9.056a20.8 20.8 0 0 1 3.312 -6.944 14.72 14.72 0 0 1 12.208 -5.984q3.792 0 6.704 1.232 2.912 1.248 4.984 3.552 2.12 2.32 3.392 5.512 1.32 3.2 1.92 7.096v10.656a26.4 26.4 0 0 1 -1.76 6.744 17.6 17.6 0 0 1 -3.392 5.304 14.4 14.4 0 0 1 -5.104 3.472q-2.952 1.2 -6.824 1.2 -3.832 0 -6.904 -1.6a15.2 15.2 0 0 1 -5.224 -4.504 22.4 22.4 0 0 1 -3.312 -6.984 32 32 0 0 1 -1.16 -8.856m4.792 -0.84v0.84q0 3.792 0.76 7.016 0.76 3.24 2.312 5.632t3.952 3.752 5.664 1.36q4.104 0 6.904 -1.56 2.792 -1.6 4.464 -4.192 1.68 -2.64 2.44 -5.744v-12.408a26.4 26.4 0 0 0 -1.4 -4.312 15.2 15.2 0 0 0 -2.512 -4.032 11.2 11.2 0 0 0 -3.992 -2.992 13.6 13.6 0 0 0 -5.824 -1.152q-3.312 0 -5.704 1.36 -2.4 1.344 -4 3.784 -1.552 2.4 -2.304 5.624 -0.76 3.232 -0.76 7.024m69.088 -21.184v43.168h-4.752v-43.168zm-5.592 -12.488q0 -1.36 0.84 -2.28a3.12 3.12 0 0 1 2.4 -0.96q1.512 0 2.392 0.96a3.12 3.12 0 0 1 0.912 2.28 3.16 3.16 0 0 1 -3.312 3.192 3.2 3.2 0 0 1 -2.392 -0.92 3.36 3.36 0 0 1 -0.84 -2.272m67.536 45.68v-33.2h4.784v43.176h-4.592zm0.88 -7.976 2.464 -0.08q0 4.064 -0.96 7.496t-2.984 5.984q-2.04 2.56 -5.272 3.952 -3.224 1.4 -7.776 1.4 -3.16 0 -5.784 -0.88a11.2 11.2 0 0 1 -4.472 -2.872 13.2 13.2 0 0 1 -2.912 -5.064 24.8 24.8 0 0 1 -1 -7.544v-27.608h4.752v27.68q0 3.48 0.76 5.792 0.8 2.32 2.152 3.712 1.4 1.4 3.192 2 1.792 0.592 3.872 0.592 5.256 0 8.296 -2.032 3.072 -2.04 4.352 -5.352 1.32 -3.352 1.312 -7.176Zm42.144 -16.28v34.24h-4.784v-43.176h4.584zm-0.88 9.976 -2.312 -1.2q0.24 -3.832 1.44 -7.184 1.24 -3.352 3.432 -5.904a15.2 15.2 0 0 1 5.264 -3.984q3.072 -1.44 6.984 -1.44 3.152 0 5.704 0.88 2.6 0.832 4.392 2.672 1.832 1.8 2.832 4.704 1 2.912 1 6.984v28.728h-4.752v-28.56q0 -4.32 -1.36 -6.752a7.6 7.6 0 0 0 -3.704 -3.472 13.6 13.6 0 0 0 -5.472 -1.04 12 12 0 0 0 -6.224 1.52q-2.512 1.472 -4.104 3.872a20 20 0 0 0 -3.112 10.176Zm28.696 -3.76 -3.2 0.08a17.2 17.2 0 0 1 4.904 -11.136q2.208 -2.264 5.232 -3.576a17.6 17.6 0 0 1 6.904 -1.32q3.36 0 5.984 0.92 2.64 0.872 4.432 2.832 1.84 1.92 2.8 4.904 0.952 3 0.952 7.184v28.128h-4.792v-28.168q0 -4.584 -1.36 -7.104a7.2 7.2 0 0 0 -3.664 -3.552 14.4 14.4 0 0 0 -5.504 -0.992q-3.12 0.04 -5.472 1.152 -2.352 1.08 -3.944 2.88a12.24 12.24 0 0 0 -3.272 7.784Z"/>
</svg>
